<svg width="90" height="56" viewBox="0 0 90 56" fill="none" xmlns="http://www.w3.org/2000/svg">
<g clip-path="url(#clip0_133_8)">
<path d="M38.8185 32.6392C40.7736 33.5037 42.3144 35.0728 43.1221 37.0231L45.2227 42.0929C45.5763 42.9472 46.8034 42.9677 47.1864 42.1253L49.6181 36.7747C50.4362 34.9758 51.8869 33.5259 53.705 32.6903L53.7362 32.6766C55.9807 31.647 58.4158 31.0684 60.8943 30.9986C70.6107 30.7195 80.3131 30.1375 89.9983 28.9632C80.3478 27.7941 70.6817 27.212 61.0001 26.9312C58.5233 26.8598 56.0899 26.2828 53.8454 25.2532L53.705 25.1886C51.8869 24.3547 50.4362 22.9047 49.6181 21.1042L47.1414 15.6549C46.7653 14.8278 45.5676 14.8278 45.1915 15.6549L42.7148 21.1042C41.8967 22.903 40.446 24.353 38.6279 25.1886L38.6192 25.192C36.3505 26.2335 33.8893 26.8121 31.3866 26.8734C20.9059 27.1287 10.4443 27.7039 0 28.9632C10.5847 30.2396 21.1884 30.8131 31.8112 31.0616C34.2307 31.1178 36.6122 31.6624 38.8185 32.6375V32.6392Z" fill="#A58565"/>
<path d="M45.9576 5.83356C60.903 5.83356 70.5032 13.2638 72.6385 22.9694H79.8642C77.1916 8.78114 63.768 0.5 45.9576 0.5C28.1472 0.5 14.7253 8.78114 12.0509 22.9711H19.2767C21.412 13.2655 31.0122 5.83526 45.9576 5.83526V5.83356Z" fill="white"/>
<path d="M45.9576 49.8772C34.1372 49.8772 23.5092 45.3435 20.0254 34.9827H12.3803C16.0217 48.9786 31.1716 55.5 45.9576 55.5C60.7435 55.5 75.8935 48.9769 79.5349 34.9827H71.8776C68.3592 45.3435 57.6463 49.8772 45.9576 49.8772Z" fill="white"/>
</g>
<defs>
<clipPath id="clip0_133_8">
<rect width="90" height="55" fill="white" transform="translate(0 0.5)"/>
</clipPath>
</defs>
</svg>
