<svg width="99" height="40" viewBox="0 0 99 40" fill="none" xmlns="http://www.w3.org/2000/svg">
<path d="M75.4693 23.6716H78.8179V31.2255C76.8302 32.8224 74.0538 33.6349 71.3583 33.6349C65.4515 33.6349 61.0941 29.5463 61.0941 23.887C61.0941 18.2278 65.4498 14.1392 71.4129 14.1392C74.5978 14.1392 77.2668 15.195 79.0626 17.2262L76.8302 19.3922C75.3337 17.9038 73.6171 17.2262 71.5766 17.2262C67.5202 17.2262 64.661 19.9613 64.661 23.887C64.661 27.8128 67.5202 30.5478 71.5484 30.5478C72.9094 30.5478 74.2439 30.2764 75.4693 29.5725V23.6699V23.6716Z" fill="white"/>
<path d="M98.2829 30.3851V33.3635H82.0292V31.0084L93.2459 17.3891H82.2193V14.4106H97.9273V16.7657L86.7106 30.3851H98.2812H98.2829Z" fill="white"/>
<path d="M8.47369 18.4609C11.1163 10.7407 18.4773 5.17247 27.1218 5.17247C35.7663 5.17247 43.5287 11.0506 45.9759 19.1L51.1785 18.3908C48.3474 7.81474 38.636 0 27.1218 0C15.6076 0 5.31344 8.29277 2.82925 19.3539L8.47545 18.4609H8.47369Z" fill="#B08046"/>
<path d="M25.7028 25.7764C26.7028 25.6013 27.7116 26.025 28.2838 26.8585L30.4881 30.0751C31.143 31.0294 32.2821 31.5372 33.4335 31.3848L54.2384 27.9564L52.7084 22.7944L30.7979 26.0881C29.974 26.2124 29.1535 25.8377 28.7116 25.1338L26.6782 21.8979C26.0179 20.7965 24.7433 20.2152 23.4721 20.4376L0 24.232L1.53699 29.6023L25.7028 25.7746V25.7764Z" fill="white"/>
<path d="M53.2084 31.3761L31.2627 34.675C30.4388 34.7993 29.6183 34.4246 29.1764 33.7207L27.143 30.4848C26.4827 29.3834 25.2081 28.8021 23.9369 29.0245L0.765869 32.7699L2.30286 38.142L26.1676 34.3633C27.1676 34.1882 28.1764 34.6119 28.7486 35.4454L30.9529 38.662C31.6078 39.6163 32.7469 40.1241 33.8983 39.9718L54.7384 36.5363L53.2084 31.3743V31.3761Z" fill="white"/>
</svg>
