<svg width="73" height="24" viewBox="0 0 73 24" fill="none" xmlns="http://www.w3.org/2000/svg">
<path d="M5.9575 19.192V4.408H10.0855V19.192H5.9575ZM0.4215 13.752V9.848H15.6535V13.752H0.4215Z" fill="#B18046"/>
<path d="M22.2977 23V2.52L24.5378 4.76H17.8178V0.599998H27.4818V23H22.2977ZM40.973 23.384C39.1383 23.384 37.4957 22.936 36.045 22.04C34.5943 21.1227 33.453 19.8 32.621 18.072C31.789 16.344 31.373 14.2533 31.373 11.8C31.373 9.34667 31.789 7.256 32.621 5.528C33.453 3.8 34.5943 2.488 36.045 1.592C37.4957 0.674666 39.1383 0.216 40.973 0.216C42.829 0.216 44.4717 0.674666 45.901 1.592C47.3517 2.488 48.493 3.8 49.325 5.528C50.157 7.256 50.573 9.34667 50.573 11.8C50.573 14.2533 50.157 16.344 49.325 18.072C48.493 19.8 47.3517 21.1227 45.901 22.04C44.4717 22.936 42.829 23.384 40.973 23.384ZM40.973 19C41.8477 19 42.605 18.7547 43.245 18.264C43.9063 17.7733 44.4183 16.9947 44.781 15.928C45.165 14.8613 45.357 13.4853 45.357 11.8C45.357 10.1147 45.165 8.73867 44.781 7.672C44.4183 6.60533 43.9063 5.82667 43.245 5.336C42.605 4.84533 41.8477 4.6 40.973 4.6C40.1197 4.6 39.3623 4.84533 38.701 5.336C38.061 5.82667 37.549 6.60533 37.165 7.672C36.8023 8.73867 36.621 10.1147 36.621 11.8C36.621 13.4853 36.8023 14.8613 37.165 15.928C37.549 16.9947 38.061 17.7733 38.701 18.264C39.3623 18.7547 40.1197 19 40.973 19ZM62.6918 23.384C60.8571 23.384 59.2144 22.936 57.7638 22.04C56.3131 21.1227 55.1718 19.8 54.3398 18.072C53.5078 16.344 53.0918 14.2533 53.0918 11.8C53.0918 9.34667 53.5078 7.256 54.3398 5.528C55.1718 3.8 56.3131 2.488 57.7638 1.592C59.2144 0.674666 60.8571 0.216 62.6918 0.216C64.5478 0.216 66.1904 0.674666 67.6198 1.592C69.0704 2.488 70.2118 3.8 71.0438 5.528C71.8758 7.256 72.2918 9.34667 72.2918 11.8C72.2918 14.2533 71.8758 16.344 71.0438 18.072C70.2118 19.8 69.0704 21.1227 67.6198 22.04C66.1904 22.936 64.5478 23.384 62.6918 23.384ZM62.6918 19C63.5664 19 64.3238 18.7547 64.9638 18.264C65.6251 17.7733 66.1371 16.9947 66.4998 15.928C66.8838 14.8613 67.0758 13.4853 67.0758 11.8C67.0758 10.1147 66.8838 8.73867 66.4998 7.672C66.1371 6.60533 65.6251 5.82667 64.9638 5.336C64.3238 4.84533 63.5664 4.6 62.6918 4.6C61.8384 4.6 61.0811 4.84533 60.4198 5.336C59.7798 5.82667 59.2678 6.60533 58.8838 7.672C58.5211 8.73867 58.3398 10.1147 58.3398 11.8C58.3398 13.4853 58.5211 14.8613 58.8838 15.928C59.2678 16.9947 59.7798 17.7733 60.4198 18.264C61.0811 18.7547 61.8384 19 62.6918 19Z" fill="#010108"/>
</svg>
