<svg width="8" height="8" viewBox="0 0 8 8" fill="none" xmlns="http://www.w3.org/2000/svg">
<path opacity="0.3" d="M7.00975 1.69126L0.829081 7.86556C0.73738 7.95726 0.622125 8.00205 0.483316 7.99993C0.344496 7.9978 0.229241 7.95089 0.137551 7.8592C0.0458503 7.7675 0 7.6533 0 7.51661C0 7.37992 0.0458503 7.26573 0.137551 7.17403L6.31185 0.993355H0.88385C0.74312 0.993355 0.625155 0.945738 0.529956 0.850505C0.434767 0.755261 0.387173 0.637247 0.387173 0.496462C0.387173 0.355666 0.434767 0.237724 0.529956 0.142635C0.625155 0.0475455 0.74312 0 0.88385 0H7.40454C7.57413 0 7.71629 0.0573633 7.83102 0.172088C7.94574 0.286814 8.00311 0.428972 8.00311 0.598566V7.11926C8.00311 7.25999 7.95549 7.37795 7.86026 7.47314C7.76501 7.56834 7.64699 7.61593 7.5062 7.61593C7.36541 7.61593 7.24748 7.56834 7.15239 7.47314C7.0573 7.37795 7.00975 7.25999 7.00975 7.11926V1.69126Z" fill="white"/>
</svg>
