<svg width="245" height="100" viewBox="0 0 245 100" fill="none" xmlns="http://www.w3.org/2000/svg">
<path d="M188.053 59.1782H196.396V78.0644C191.444 82.0599 184.523 84.0875 177.808 84.0875C163.087 84.0875 152.232 73.8671 152.232 59.7175C152.232 45.5678 163.087 35.3474 177.943 35.3474C185.882 35.3474 192.528 37.9868 197.006 43.0639L191.444 48.4784C187.711 44.7542 183.439 43.0639 178.351 43.0639C168.242 43.0639 161.122 49.9007 161.122 59.7175C161.122 69.5342 168.245 76.371 178.285 76.371C181.676 76.371 185 75.693 188.053 73.9333V59.1751V59.1782Z" fill="#090923"/>
<path d="M244.898 75.9673V83.4127H204.4V77.522L232.349 43.4739H204.874V36.0285H244.016V41.9192L216.068 75.9673H244.898Z" fill="#090923"/>
<path d="M21.1162 46.1543C27.6989 26.8519 46.0437 12.9293 67.5835 12.9293C89.1232 12.9293 108.464 27.6245 114.563 47.75L127.529 45.9777C120.469 19.539 96.2716 0 67.5835 0C38.8954 0 13.2411 20.7341 7.04712 48.387L21.1131 46.1543H21.1162Z" fill="#B08046"/>
<path d="M64.0442 64.4414C66.5344 64.003 69.0499 65.0626 70.4751 67.1471L75.9675 75.1884C77.5982 77.5756 80.4392 78.8433 83.3086 78.4649L135.148 69.8906L131.337 56.9834L76.7386 65.2203C74.6845 65.5293 72.643 64.5927 71.5401 62.8331L66.4743 54.7413C64.8279 51.9883 61.6519 50.5345 58.4854 51.0895L0 60.5815L3.83014 74.009L64.0442 64.4414Z" fill="#090923"/>
<path d="M132.582 78.4428L77.8983 86.6923C75.8442 87.0014 73.8027 86.0648 72.6998 84.3051L67.6341 76.2133C65.9876 73.4603 62.8116 72.0066 59.6451 72.5616L1.90552 81.9306L5.73565 95.3612L65.2007 85.9134C67.6909 85.4751 70.2064 86.5346 71.6317 88.6191L77.1241 96.6605C78.7547 99.0477 81.5957 100.315 84.4652 99.9369L136.393 91.35L132.582 78.446V78.4428Z" fill="#090923"/>
</svg>
