<svg width="1440" height="5140" viewBox="0 0 1440 5140" fill="none" xmlns="http://www.w3.org/2000/svg">
<rect y="1489" width="1440" height="3651" fill="#DDDDDD"/>
<path fill-rule="evenodd" clip-rule="evenodd" d="M608.75 124.586L-20.6386 228.462L-20.6776 228.484L-55.9409 159.745L542.181 56.8492C575.201 51.7022 606.799 55.8685 623.884 67.6115L681.455 107.166C696.403 117.41 724.436 120.731 753.128 115.658L1437.85 0L1473 71.6719L808.012 185.064C771.548 191.52 736.185 186.653 719.187 172.864L666.529 132.587C655.112 123.823 632.404 120.679 608.75 124.586ZM752.62 235.457C723.928 240.53 695.895 237.209 680.947 226.965L623.376 187.411C606.292 175.668 574.693 171.501 541.673 176.648L-55.4766 279.364L-20.2133 348.103L0.000158311 344.767V1534H1440V197.004L1481.12 189.992L1445.97 118.339L752.62 235.457Z" fill="#DDDDDD"/>
</svg>
