<svg width="48" height="48" viewBox="0 0 48 48" fill="none" xmlns="http://www.w3.org/2000/svg">
<rect x="0.5" y="0.5" width="47" height="47" rx="3.5" fill="#B08046" fill-opacity="0.05" stroke="#B08046"/>
<path d="M18.998 12C15.139 12 12 15.142 12 19.002V29.002C12 32.861 15.142 36 19.002 36H29.002C32.861 36 36 32.858 36 28.998V18.998C36 15.139 32.858 12 28.998 12H18.998ZM31 16C31.552 16 32 16.448 32 17C32 17.552 31.552 18 31 18C30.448 18 30 17.552 30 17C30 16.448 30.448 16 31 16ZM24 18C27.309 18 30 20.691 30 24C30 27.309 27.309 30 24 30C20.691 30 18 27.309 18 24C18 20.691 20.691 18 24 18ZM24 20C22.9391 20 21.9217 20.4214 21.1716 21.1716C20.4214 21.9217 20 22.9391 20 24C20 25.0609 20.4214 26.0783 21.1716 26.8284C21.9217 27.5786 22.9391 28 24 28C25.0609 28 26.0783 27.5786 26.8284 26.8284C27.5786 26.0783 28 25.0609 28 24C28 22.9391 27.5786 21.9217 26.8284 21.1716C26.0783 20.4214 25.0609 20 24 20Z" fill="#B18046"/>
</svg>
