<svg width="48" height="48" viewBox="0 0 48 48" fill="none" xmlns="http://www.w3.org/2000/svg">
<rect x="0.5" y="0.5" width="47" height="47" rx="3.5" fill="#B08046" fill-opacity="0.05" stroke="#B08046"/>
<path d="M24 12C17.373 12 12 17.373 12 24C12 30.016 16.432 34.984 22.206 35.852V27.18H19.237V24.026H22.206V21.927C22.206 18.452 23.899 16.927 26.787 16.927C28.17 16.927 28.902 17.03 29.248 17.076V19.829H27.278C26.052 19.829 25.624 20.992 25.624 22.302V24.026H29.217L28.73 27.18H25.624V35.877C31.481 35.083 36 30.075 36 24C36 17.373 30.627 12 24 12Z" fill="#B08046"/>
</svg>
