<svg width="139" height="27" viewBox="0 0 139 27" fill="none" xmlns="http://www.w3.org/2000/svg">
<path d="M138.178 13.7645C119.185 13.1399 100.089 12.7813 80.9767 12.6765C79.9307 12.6725 78.9006 12.4388 77.9543 11.9915L77.8745 11.9512C77.0241 11.5523 76.3454 10.8552 75.9621 9.98892L74.8042 7.3698C74.6286 6.97089 74.0696 6.97089 73.8939 7.3698L72.7361 9.98892C72.3528 10.8552 71.6741 11.5483 70.8237 11.9512H70.8157C69.8575 12.4066 68.8154 12.6403 67.7614 12.6403C45.1237 12.6564 22.486 13.0311 0 13.7645C22.5539 14.4978 45.2515 14.8726 67.953 14.8887C68.9751 14.8887 69.9852 15.1063 70.9155 15.5294C71.8298 15.9444 72.5484 16.6979 72.9277 17.6368L73.9099 20.0745C74.0736 20.4855 74.6485 20.4936 74.8282 20.0907L75.9661 17.5199C76.3493 16.6536 77.0281 15.9605 77.8785 15.5576L77.9104 15.5415C78.8567 15.0942 79.8867 14.8605 80.9328 14.8565C100.065 14.7517 119.177 14.389 138.182 13.7645H138.178Z" fill="#A58565"/>
<path d="M7.94517 16.6536H4.61938V25.8406H7.94517V16.6536Z" fill="white"/>
<path d="M7.94517 0.624573H4.61938V10.8835H7.94517V0.624573Z" fill="white"/>
<path d="M34.5994 26.4652C41.2909 26.4652 46.3973 24.382 49.3438 19.1478L46.3934 17.8302C44.1256 21.6823 40.3447 23.7615 34.8988 23.7615C28.0915 23.7615 23.9952 20.8804 22.7296 16.6576H19.292C20.6534 22.327 25.6321 26.4692 34.5954 26.4692L34.5994 26.4652Z" fill="white"/>
<path d="M34.5994 2.56674C39.8536 2.56674 44.1256 4.29939 46.054 8.42954L48.9286 7.21668C46.4732 2.07918 40.4604 0 34.5635 0C26.1951 0 20.1743 3.76347 19.0884 10.8834H22.5659C23.6039 5.48 27.8201 2.56674 34.5994 2.56674Z" fill="white"/>
<path d="M74.2613 2.56674C81.2922 2.56674 85.7958 6.18112 86.766 10.8834H90.1476C88.9259 4.00927 82.6297 0 74.2613 0C65.893 0 59.5927 4.0133 58.375 10.8834H61.7567C62.7269 6.17709 67.2305 2.56674 74.2613 2.56674Z" fill="white"/>
<path d="M74.2613 23.7615C68.7516 23.7615 63.7928 21.5977 62.1399 16.6576H58.5586C60.2914 23.3505 67.3621 26.4692 74.2613 26.4692C81.1604 26.4692 88.2312 23.3505 89.9639 16.6576H86.3786C84.7097 21.6017 79.7111 23.7615 74.2653 23.7615H74.2613Z" fill="white"/>
<path d="M104.509 3.32831L111.891 10.8835H116.175L106.058 0.624573H101.331V10.8835H104.509V3.32831Z" fill="white"/>
<path d="M129.837 0.624573H126.512V10.8835H129.837V0.624573Z" fill="white"/>
<path d="M104.505 16.6536H101.331V25.8406H104.505V16.6536Z" fill="white"/>
<path d="M126.512 21.368L121.864 16.6536H117.532L126.512 25.8406H129.837V16.6536H126.512V21.368Z" fill="white"/>
</svg>
