<svg width="48" height="48" viewBox="0 0 48 48" fill="none" xmlns="http://www.w3.org/2000/svg">
<path d="M16.8502 27.05L20.0502 29.2L24.0002 27.2L27.9502 29.2L31.1502 27.05L29.1002 22.9C28.9669 22.6333 28.7669 22.4166 28.5002 22.25C28.2335 22.0833 27.9502 22 27.6502 22H20.3002C20.0002 22 19.7252 22.0833 19.4752 22.25C19.2252 22.4166 19.0335 22.6333 18.9002 22.9L16.8502 27.05ZM10.4502 40H37.5002L31.7502 28.35L28.0502 30.8L24.0002 28.8L19.9502 30.8L16.2002 28.3L10.4502 40ZM8.2002 41.4L17.6002 22.25C17.8669 21.75 18.2419 21.35 18.7252 21.05C19.2085 20.75 19.7335 20.6 20.3002 20.6H23.3002V6.59998H33.9002L32.5502 9.29998L33.9002 12H24.7002V20.6H27.5502C28.1169 20.6 28.6335 20.75 29.1002 21.05C29.5669 21.35 29.9335 21.75 30.2002 22.25L39.8002 41.4H8.2002Z" fill="#B08046"/>
</svg>
