<svg width="44" height="32" viewBox="0 0 44 32" fill="none" xmlns="http://www.w3.org/2000/svg">
<g clip-path="url(#clip0_59_586)">
<path d="M6.68392 14.7698C8.7679 8.59337 14.5745 4.13831 21.3929 4.13831C28.2112 4.13831 34.3339 8.84076 36.2629 15.2811L40.3672 14.7139C38.1334 6.25198 30.4737 0 21.3929 0C12.312 0 4.19156 6.63497 2.23071 15.484L6.68392 14.7688V14.7698Z" fill="#B08046"/>
<path d="M20.2734 20.6212C21.0614 20.4814 21.8577 20.8199 22.3092 21.4865L24.0484 24.0598C24.5645 24.8237 25.4633 25.2294 26.3725 25.1083L42.7826 22.3653L41.576 18.2353L24.2936 20.8706C23.6431 20.97 22.9966 20.6698 22.6488 20.1067L21.045 17.5179C20.5248 16.6371 19.5182 16.1713 18.5167 16.3493L0 19.3863L1.21283 23.683L20.2734 20.6212Z" fill="#D9D9D9"/>
<path d="M41.9679 25.102L24.6578 27.7415C24.0073 27.8408 23.3608 27.5407 23.013 26.9776L21.4092 24.3888C20.889 23.5079 19.8824 23.0421 18.8809 23.2202L0.603271 26.2178L1.8161 30.5155L20.6396 27.492C21.4277 27.3523 22.2239 27.6907 22.6754 28.3574L24.4146 30.9306C24.9307 31.6945 25.8296 32.1003 26.7387 31.9792L43.1756 29.231L41.9689 25.1009L41.9679 25.102Z" fill="#D9D9D9"/>
</g>
<defs>
<clipPath id="clip0_59_586">
<rect width="43.1746" height="32" fill="white"/>
</clipPath>
</defs>
</svg>
