<svg width="117" height="24" viewBox="0 0 117 24" fill="none" xmlns="http://www.w3.org/2000/svg">
<path d="M116.134 12.1861C100.172 11.6331 84.1217 11.3156 68.0584 11.2229C67.1793 11.2193 66.3135 11.0124 65.5182 10.6164L65.4511 10.5807C64.7364 10.2276 64.1659 9.61042 63.8438 8.84344L62.8707 6.52464C62.723 6.17147 62.2532 6.17147 62.1056 6.52464L61.1325 8.84344C60.8103 9.61042 60.2399 10.224 59.5251 10.5807H59.5184C58.7131 10.9839 57.8372 11.1908 56.9514 11.1908C37.9251 11.205 18.8988 11.5368 0 12.1861C18.9558 12.8353 38.0325 13.1671 57.1124 13.1814C57.9715 13.1814 58.8204 13.374 59.6023 13.7486C60.3707 14.116 60.9747 14.7831 61.2935 15.6143L62.119 17.7726C62.2566 18.1364 62.7398 18.1436 62.8908 17.7868L63.8471 15.5109C64.1693 14.7439 64.7397 14.1303 65.4545 13.7735L65.4813 13.7593C66.2766 13.3633 67.1423 13.1564 68.0215 13.1528C84.1016 13.0601 100.165 12.739 116.138 12.1861H116.134Z" fill="#A58565"/>
<path d="M6.67779 14.7439H3.88257V22.8775H6.67779V14.7439Z" fill="white"/>
<path d="M6.67779 0.552734H3.88257V9.63527H6.67779V0.552734Z" fill="white"/>
<path d="M29.0798 23.4304C34.7038 23.4304 38.9956 21.5861 41.472 16.9521L38.9922 15.7855C37.0862 19.196 33.9085 21.0367 29.3314 21.0367C23.6101 21.0367 20.1673 18.486 19.1035 14.7474H16.2144C17.3586 19.7667 21.5431 23.434 29.0764 23.434L29.0798 23.4304Z" fill="white"/>
<path d="M29.0797 2.27242C33.4957 2.27242 37.0862 3.80639 38.707 7.46295L41.123 6.38917C39.0593 1.84077 34.0058 0 29.0495 0C22.0162 0 16.9559 3.33193 16.0432 9.63548H18.9659C19.8384 4.85163 23.3819 2.27242 29.0797 2.27242Z" fill="white"/>
<path d="M62.4142 2.27242C68.3234 2.27242 72.1086 5.47235 72.924 9.63548H75.7662C74.7394 3.54954 69.4476 0 62.4142 0C55.3809 0 50.0857 3.55311 49.0623 9.63548H51.9045C52.7199 5.46879 56.505 2.27242 62.4142 2.27242Z" fill="white"/>
<path d="M62.4142 21.0367C57.7834 21.0367 53.6158 19.121 52.2265 14.7474H49.2166C50.6729 20.6728 56.6157 23.434 62.4142 23.434C68.2126 23.434 74.1554 20.6728 75.6118 14.7474H72.5984C71.1958 19.1246 66.9946 21.0367 62.4175 21.0367H62.4142Z" fill="white"/>
<path d="M87.8363 2.94644L94.0409 9.63527H97.6414L89.1383 0.552734H85.1653V9.63527H87.8363V2.94644Z" fill="white"/>
<path d="M109.125 0.552734H106.329V9.63527H109.125V0.552734Z" fill="white"/>
<path d="M87.833 14.7439H85.1653V22.8775H87.833V14.7439Z" fill="white"/>
<path d="M106.329 18.9177L102.423 14.7439H98.7825L106.329 22.8775H109.124V14.7439H106.329V18.9177Z" fill="white"/>
</svg>
