<svg width="48" height="48" viewBox="0 0 48 48" fill="none" xmlns="http://www.w3.org/2000/svg">
<path d="M22.22 5.49748V5.43968L22.1699 5.41083C21.6082 5.0873 21.26 4.49021 21.26 3.83998C21.26 2.83396 22.074 2.01998 23.08 2.01998C24.086 2.01998 24.9 2.83396 24.9 3.83998C24.9 4.49043 24.5516 5.09116 23.9901 5.41458L23.94 5.44343V5.50123V10.6987V10.776L24.0147 10.7955C25.4828 11.1789 26.5967 12.4354 26.7757 13.9728L26.7846 14.0496L26.8612 14.0603C28.3159 14.2626 29.7697 14.4772 31.2214 14.6914C33.0211 14.9571 34.8175 15.2222 36.6079 15.4629L36.6101 15.4631C36.9397 15.5001 37.2221 15.7221 37.3331 16.038C37.3331 16.038 37.3331 16.0381 37.3331 16.0381L45.0126 38.1166C45.0127 38.1168 45.0127 38.117 45.0128 38.1171C45.0434 38.209 45.06 38.3031 45.06 38.4C45.06 40.1085 43.9608 41.5697 42.3961 42.5412C40.8357 43.5086 38.7771 44.06 36.52 44.06C34.2629 44.06 32.2043 43.5086 30.6439 42.5412C29.0791 41.5697 27.98 40.1085 27.98 38.4C27.98 38.3032 27.9966 38.209 28.0272 38.1172C28.0272 38.117 28.0273 38.1168 28.0274 38.1166L35.3244 17.1366L35.3644 17.0217L35.2439 17.0047C33.887 16.8139 32.53 16.6152 31.1752 16.4168C29.6589 16.1948 28.1452 15.9732 26.6375 15.7634L26.561 15.7528L26.5314 15.8241C25.9687 17.1798 24.6315 18.14 23.08 18.14C21.1748 18.14 19.6036 16.6833 19.3843 14.827L19.3753 14.7503L19.2988 14.7397C17.6538 14.5108 16.012 14.2712 14.3734 14.0321C13.2739 13.8717 12.1759 13.7114 11.0791 13.5547L10.9166 13.5315L10.9706 13.6866L18.1326 34.2766C18.1327 34.2768 18.1327 34.277 18.1328 34.2771C18.1634 34.3689 18.18 34.4631 18.18 34.56C18.18 36.2686 17.0808 37.7298 15.516 38.7013C13.9557 39.6686 11.8971 40.22 9.64 40.22C7.38305 40.22 5.32453 39.6687 3.76034 38.7013C2.19921 37.7298 1.1 36.2686 1.1 34.56C1.1 34.4631 1.11663 34.369 1.14717 34.2772C1.14724 34.277 1.1473 34.2768 1.14737 34.2766L8.82691 12.1979C8.82692 12.1979 8.82693 12.1979 8.82694 12.1979C8.95133 11.8416 9.29424 11.6065 9.67018 11.6199L9.67018 11.62H9.67375C9.70906 11.62 9.74584 11.6259 9.79231 11.6336L9.7923 11.6337L9.79529 11.6341C11.5678 11.8748 13.3308 12.135 15.0907 12.3948C16.5687 12.6129 18.0447 12.8308 19.5225 13.0365L19.5989 13.0472L19.6286 12.9759C20.0739 11.9063 21.009 11.0951 22.1455 10.7954L22.22 10.7758V10.6987V5.49748ZM9.73445 15.3721L9.64 15.1006L9.54555 15.3721L3.21555 33.5671L3.16933 33.7H3.31H15.97H16.1107L16.0644 33.5671L9.73445 15.3721ZM36.6144 19.2121L36.52 18.9406L36.4256 19.2121L30.0956 37.4071L30.0493 37.54H30.19H42.85H42.9907L42.9444 37.4071L36.6144 19.2121ZM3.16375 35.42H3.00967L3.07242 35.5607C3.34511 36.1723 3.87133 36.7449 4.66718 37.2399L4.66743 37.2401C5.89315 37.9976 7.67076 38.5 9.64 38.5C11.6092 38.5 13.3868 37.9976 14.6126 37.2401L14.6128 37.2399C15.4087 36.7449 15.9349 36.1723 16.2076 35.5607L16.2703 35.42H16.1163H3.16375ZM30.0437 39.26H29.8897L29.9524 39.4007C30.2251 40.0123 30.7513 40.5849 31.5472 41.0799L31.5474 41.0801C32.7732 41.8376 34.5508 42.34 36.52 42.34C38.4892 42.34 40.2668 41.8376 41.4926 41.0801L41.4928 41.0799C42.2887 40.5849 42.8149 40.0123 43.0876 39.4007L43.1503 39.26H42.9963H30.0437ZM25.1 14.4C25.1 13.2723 24.2077 12.38 23.08 12.38C21.9523 12.38 21.06 13.2723 21.06 14.4C21.06 15.5277 21.9523 16.42 23.08 16.42C24.2077 16.42 25.1 15.5277 25.1 14.4Z" fill="#B08046" stroke="#DDDDDD" stroke-width="0.2"/>
</svg>
