<svg width="48" height="48" viewBox="0 0 48 48" fill="none" xmlns="http://www.w3.org/2000/svg">
<g clip-path="url(#clip0_166_6)">
<path d="M2.71078 27.8107L2.71074 27.8109C2.62829 28.1321 2.42163 28.4073 2.13622 28.5761C1.85082 28.7449 1.51005 28.7934 1.18888 28.711C0.867707 28.6285 0.592444 28.4219 0.423644 28.1365C0.254869 27.8511 0.206348 27.5104 0.288747 27.1893C2.9057 17.0211 12.7781 9.25 23.9861 9.25C35.1944 9.25 45.0932 17.0189 47.7107 27.1891C47.7932 27.5103 47.7447 27.8511 47.5759 28.1365C47.4071 28.4219 47.1318 28.6285 46.8106 28.711C46.4895 28.7934 46.1487 28.7449 45.8633 28.5761C45.5779 28.4073 45.3712 28.1321 45.2888 27.8109L45.2887 27.8107C42.9803 18.8412 34.0178 11.75 23.9861 11.75C13.954 11.75 5.0198 18.839 2.71078 27.8107ZM14.5877 26.6641C14.5877 21.4821 18.8197 17.25 24.0017 17.25C29.1838 17.25 33.4177 21.4821 33.4177 26.6641C33.4177 31.8461 29.1837 36.0801 24.0017 36.0801C18.8198 36.0801 14.5877 31.8461 14.5877 26.6641ZM30.9177 26.6641C30.9177 22.8272 27.8384 19.75 24.0017 19.75C20.1649 19.75 17.0877 22.8272 17.0877 26.6641C17.0877 30.5008 20.1648 33.5801 24.0017 33.5801C27.8385 33.5801 30.9177 30.5009 30.9177 26.6641Z" fill="#B08046" stroke="#DDDDDD" stroke-width="0.5"/>
</g>
<defs>
<clipPath id="clip0_166_6">
<rect width="48" height="48" fill="white"/>
</clipPath>
</defs>
</svg>
