<svg width="88" height="65" viewBox="0 0 88 65" fill="none" xmlns="http://www.w3.org/2000/svg">
<path d="M13.5335 29.7604C17.7527 17.4108 29.513 8.50143 43.3235 8.50143C57.1341 8.50143 69.5323 17.9061 73.4392 30.7815L81.7501 29.6465C77.2273 12.7261 61.7141 0.223083 43.3235 0.223083C24.933 0.223083 8.48705 13.4886 4.51855 31.1847L13.5379 29.7561L13.5335 29.7604Z" fill="#B08046"/>
<path d="M41.0532 41.4658C42.6503 41.1853 44.2606 41.8646 45.1757 43.1969L48.6954 48.3418C49.7425 49.8713 51.5596 50.682 53.403 50.4366L86.6381 44.9498L84.1963 36.689L49.197 41.961C47.8815 42.1582 46.5704 41.5579 45.8664 40.436L42.6195 35.2603C41.5636 33.4986 39.5265 32.5696 37.4983 32.9245L0 38.9985L2.45501 47.5924L41.0576 41.4702L41.0532 41.4658Z" fill="#090923"/>
<path d="M84.9882 50.4234L49.9318 55.7042C48.6163 55.9014 47.3052 55.301 46.6012 54.1791L43.3543 49.0035C42.2984 47.2418 40.2613 46.3127 38.2331 46.6677L1.21875 52.6628L3.67376 61.2567L41.7924 55.209C43.3895 54.9285 44.9997 55.6078 45.9149 56.9401L49.4346 62.085C50.4817 63.6144 52.2988 64.4252 54.1422 64.1798L87.43 58.6843L84.9882 50.4278V50.4234Z" fill="#090923"/>
</svg>
