<svg width="280" height="67" viewBox="0 0 280 67" fill="none" xmlns="http://www.w3.org/2000/svg">
<g clip-path="url(#clip0_149_1346)">
<path d="M126.991 39.6503H132.626V52.3029C129.282 54.9778 124.61 56.3387 120.074 56.3387C110.135 56.3387 102.802 49.4903 102.802 40.011C102.802 30.5318 110.132 23.6833 120.166 23.6833C125.525 23.6833 130.016 25.4519 133.038 28.8541L129.282 32.4822C126.763 29.9892 123.875 28.8541 120.441 28.8541C113.616 28.8541 108.805 33.4354 108.805 40.011C108.805 46.5866 113.616 51.1679 120.394 51.1679C122.684 51.1679 124.93 50.7133 126.991 49.5343V39.6473V39.6503Z" fill="black"/>
<path d="M165.38 50.8951V55.884H138.03V51.9392L156.904 29.1269H138.35V24.1379H164.781V28.0827L145.907 50.8951H165.377H165.38Z" fill="black"/>
<path d="M181.819 28.9451H183.881V32.8635C182.808 33.6642 181.33 34.0924 179.937 34.0924C176.871 34.0924 174.614 32.01 174.614 29.0976C174.614 26.1852 176.871 24.1028 179.979 24.1028C181.694 24.1028 183.113 24.6835 184.061 25.7716L182.613 27.0973C181.902 26.3523 181.078 26.0063 180.089 26.0063C178.193 26.0063 176.898 27.2616 176.898 29.0976C176.898 30.9336 178.195 32.1889 180.062 32.1889C180.675 32.1889 181.247 32.0774 181.819 31.7753V28.948V28.9451Z" fill="black"/>
<path d="M195.77 33.9253L193.888 31.2357H191.812V33.9253H189.554V24.2671H193.776C196.383 24.2671 198.012 25.6045 198.012 27.772C198.012 29.2208 197.275 30.2825 196.007 30.8222L198.196 33.9253H195.77ZM193.651 26.0884H191.812V29.4555H193.651C195.032 29.4555 195.728 28.8219 195.728 27.772C195.728 26.722 195.032 26.0884 193.651 26.0884Z" fill="black"/>
<path d="M209.803 31.8546H205.273L204.408 33.9253H202.094L206.443 24.2671H208.674L213.035 33.9253H210.665L209.8 31.8546H209.803ZM209.092 30.1564L207.545 26.458L205.999 30.1564H209.092Z" fill="black"/>
<path d="M216.869 32.972L217.636 31.2885C218.46 31.8809 219.686 32.2945 220.856 32.2945C222.195 32.2945 222.737 31.8545 222.737 31.2592C222.737 29.4525 217.064 30.6931 217.064 27.1061C217.064 25.4637 218.403 24.0999 221.176 24.0999C222.403 24.0999 223.656 24.3902 224.562 24.9563L223.866 26.6544C222.96 26.1441 222.026 25.8948 221.161 25.8948C219.822 25.8948 219.307 26.3905 219.307 26.9976C219.307 28.7779 224.98 27.549 224.98 31.0949C224.98 32.708 223.629 34.0894 220.841 34.0894C219.295 34.0894 217.734 33.6348 216.869 32.972Z" fill="black"/>
<path d="M229.341 32.972L230.108 31.2885C230.932 31.8809 232.158 32.2945 233.328 32.2945C234.667 32.2945 235.21 31.8545 235.21 31.2592C235.21 29.4525 229.536 30.6931 229.536 27.1061C229.536 25.4637 230.875 24.0999 233.648 24.0999C234.875 24.0999 236.128 24.3902 237.034 24.9563L236.338 26.6544C235.432 26.1441 234.499 25.8948 233.634 25.8948C232.294 25.8948 231.779 26.3905 231.779 26.9976C231.779 28.7779 237.452 27.549 237.452 31.0949C237.452 32.708 236.101 34.0894 233.314 34.0894C231.767 34.0894 230.206 33.6348 229.341 32.972Z" fill="black"/>
<path d="M242.58 24.2671H244.838V33.9253H242.58V24.2671Z" fill="black"/>
<path d="M183.128 46.6073V48.4287H174.599V46.9798L179.949 40.5919H174.709V38.7705H182.918V40.2194L177.579 46.6073H183.125H183.128Z" fill="black"/>
<path d="M194.584 46.358H190.055L189.19 48.4287H186.876L191.225 38.7705H193.456L197.817 48.4287H195.447L194.582 46.358H194.584ZM193.873 44.6598L192.327 40.9614L190.781 44.6598H193.873Z" fill="black"/>
<path d="M210.875 42.2754C210.875 44.4281 209.246 45.7656 206.639 45.7656H204.674V48.4287H202.417V38.7705H206.639C209.246 38.7705 210.875 40.1079 210.875 42.2754ZM208.591 42.2754C208.591 41.2136 207.895 40.5919 206.514 40.5919H204.674V43.9442H206.514C207.895 43.9442 208.591 43.3224 208.591 42.2754Z" fill="black"/>
<path d="M224.518 42.2754C224.518 44.4281 222.888 45.7656 220.281 45.7656H218.317V48.4287H216.06V38.7705H220.281C222.888 38.7705 224.518 40.1079 224.518 42.2754ZM222.233 42.2754C222.233 41.2136 221.537 40.5919 220.157 40.5919H218.317V43.9442H220.157C221.537 43.9442 222.233 43.3224 222.233 42.2754Z" fill="black"/>
<path d="M237.257 46.6337V48.4287H229.702V38.7705H237.073V40.5655H231.945V42.6625H236.474V44.4017H231.945V46.6366H237.254L237.257 46.6337Z" fill="black"/>
<path d="M242.636 38.7705H244.894V46.6073H249.785V48.4287H242.636V38.7705Z" fill="black"/>
<path d="M254.635 38.7705H256.892V48.4287H254.635V38.7705Z" fill="black"/>
<path d="M271.734 38.7705V48.4287H269.88L265.015 42.5657V48.4287H262.785V38.7705H264.651L269.501 44.6334V38.7705H271.731H271.734Z" fill="black"/>
<path d="M277.63 38.7705H279.887V48.4287H277.63V38.7705Z" fill="black"/>
<path d="M178.012 56.022V56.4912H175.251V52.7253H177.935V53.1946H175.793V54.3502H177.701V54.8077H175.793V56.022H178.009H178.012Z" fill="black"/>
<path d="M184.233 54.8488V56.4883H183.712V54.9074C183.712 54.3472 183.439 54.0745 182.968 54.0745C182.447 54.0745 182.103 54.403 182.103 55.0218V56.4912H181.582V54.9104C181.582 54.3502 181.309 54.0774 180.838 54.0774C180.317 54.0774 179.973 54.4059 179.973 55.0248V56.4942H179.452V53.6433H179.952V54.0686C180.16 53.7783 180.512 53.6169 180.948 53.6169C181.383 53.6169 181.757 53.79 181.949 54.1449C182.165 53.8222 182.568 53.6169 183.057 53.6169C183.759 53.6169 184.236 54.0158 184.236 54.8546L184.233 54.8488Z" fill="black"/>
<path d="M188.813 55.0658C188.813 55.9428 188.2 56.5235 187.356 56.5235C186.947 56.5235 186.588 56.368 186.351 56.0601V57.5353H185.83V53.6404H186.331V54.0921C186.565 53.7753 186.935 53.614 187.359 53.614C188.2 53.614 188.816 54.1947 188.816 55.0658H188.813ZM188.286 55.0658C188.286 54.4646 187.868 54.0657 187.314 54.0657C186.76 54.0657 186.349 54.4646 186.349 55.0658C186.349 55.6671 186.766 56.0718 187.314 56.0718C187.862 56.0718 188.286 55.6729 188.286 55.0658Z" fill="black"/>
<path d="M191.72 53.6111V54.1126C191.675 54.1068 191.64 54.1068 191.601 54.1068C191.041 54.1068 190.695 54.447 190.695 55.0688V56.4883H190.173V53.6375H190.674V54.1155C190.858 53.7812 191.216 53.6111 191.723 53.6111H191.72Z" fill="black"/>
<path d="M195.559 55.2359H193.222C193.287 55.7375 193.696 56.0689 194.264 56.0689C194.602 56.0689 194.884 55.9545 195.097 55.7257L195.384 56.0601C195.124 56.3622 194.727 56.5235 194.25 56.5235C193.319 56.5235 192.7 55.9164 192.7 55.0658C192.7 54.2153 193.313 53.614 194.146 53.614C194.978 53.614 195.571 54.2065 195.571 55.0834C195.571 55.1274 195.565 55.1919 195.559 55.2389V55.2359ZM193.222 54.8634H195.07C195.017 54.3854 194.653 54.0452 194.146 54.0452C193.639 54.0452 193.278 54.3795 193.222 54.8634Z" fill="black"/>
<path d="M199.52 55.2359H197.183C197.248 55.7375 197.657 56.0689 198.225 56.0689C198.563 56.0689 198.845 55.9545 199.058 55.7257L199.345 56.0601C199.084 56.3622 198.687 56.5235 198.211 56.5235C197.28 56.5235 196.661 55.9164 196.661 55.0658C196.661 54.2153 197.274 53.614 198.107 53.614C198.939 53.614 199.532 54.2065 199.532 55.0834C199.532 55.1274 199.526 55.1919 199.52 55.2389V55.2359ZM197.183 54.8634H199.031C198.978 54.3854 198.613 54.0452 198.107 54.0452C197.6 54.0452 197.239 54.3795 197.183 54.8634Z" fill="black"/>
<path d="M203.623 54.8488V56.4883H203.102V54.9074C203.102 54.3472 202.82 54.0745 202.325 54.0745C201.771 54.0745 201.413 54.403 201.413 55.0218V56.4912H200.892V53.6404H201.392V54.0716C201.606 53.7812 201.973 53.614 202.429 53.614C203.131 53.614 203.626 54.0129 203.626 54.8517L203.623 54.8488Z" fill="black"/>
<path d="M207.957 52.4995V56.4912H207.457V56.0396C207.223 56.3622 206.852 56.5235 206.429 56.5235C205.587 56.5235 204.974 55.9369 204.974 55.0658C204.974 54.1947 205.587 53.614 206.429 53.614C206.838 53.614 207.196 53.7636 207.433 54.0716V52.4995H207.954H207.957ZM207.442 55.0658C207.442 54.4587 207.024 54.0657 206.476 54.0657C205.928 54.0657 205.504 54.4587 205.504 55.0658C205.504 55.6729 205.922 56.0718 206.476 56.0718C207.03 56.0718 207.442 55.6729 207.442 55.0658Z" fill="black"/>
<path d="M209.489 52.7577C209.489 52.57 209.64 52.4175 209.841 52.4175C210.043 52.4175 210.194 52.5641 210.194 52.746C210.194 52.9395 210.046 53.0891 209.841 53.0891C209.637 53.0891 209.489 52.9425 209.489 52.7548V52.7577ZM209.581 53.6405H210.102V56.4913H209.581V53.6405Z" fill="black"/>
<path d="M216.513 54.8488V56.4883H215.992V54.9074C215.992 54.3472 215.719 54.0745 215.248 54.0745C214.727 54.0745 214.383 54.403 214.383 55.0218V56.4912H213.862V54.9104C213.862 54.3502 213.589 54.0774 213.118 54.0774C212.597 54.0774 212.253 54.4059 212.253 55.0248V56.4942H211.731V53.6433H212.232V54.0686C212.439 53.7783 212.792 53.6169 213.228 53.6169C213.663 53.6169 214.036 53.79 214.229 54.1449C214.445 53.8222 214.848 53.6169 215.337 53.6169C216.039 53.6169 216.516 54.0158 216.516 54.8546L216.513 54.8488Z" fill="black"/>
<path d="M220.717 55.2359H218.379C218.444 55.7375 218.853 56.0689 219.422 56.0689C219.76 56.0689 220.041 55.9545 220.255 55.7257L220.542 56.0601C220.281 56.3622 219.884 56.5235 219.407 56.5235C218.477 56.5235 217.858 55.9164 217.858 55.0658C217.858 54.2153 218.471 53.614 219.304 53.614C220.136 53.614 220.726 54.2065 220.726 55.0834C220.726 55.1274 220.72 55.1919 220.714 55.2389L220.717 55.2359ZM218.379 54.8634H220.228C220.175 54.3854 219.81 54.0452 219.304 54.0452C218.797 54.0452 218.433 54.3795 218.379 54.8634Z" fill="black"/>
<path d="M224.82 54.8488V56.4883H224.298V54.9074C224.298 54.3472 224.017 54.0745 223.522 54.0745C222.968 54.0745 222.61 54.403 222.61 55.0218V56.4912H222.088V53.6404H222.589V54.0716C222.802 53.7812 223.17 53.614 223.626 53.614C224.328 53.614 224.823 54.0129 224.823 54.8517L224.82 54.8488Z" fill="black"/>
<path d="M228.04 56.3242C227.883 56.4591 227.643 56.5237 227.409 56.5237C226.828 56.5237 226.497 56.2069 226.497 55.632V54.0659H226.008V53.6406H226.497V53.0159H227.018V53.6406H227.845V54.0659H227.018V55.6086C227.018 55.9165 227.181 56.0867 227.468 56.0867C227.619 56.0867 227.768 56.0368 227.877 55.9517L228.04 56.3242Z" fill="black"/>
<path d="M228.944 55.0658C228.944 54.2153 229.581 53.614 230.443 53.614C231.305 53.614 231.936 54.2153 231.936 55.0658C231.936 55.9164 231.305 56.5235 230.443 56.5235C229.581 56.5235 228.944 55.9164 228.944 55.0658ZM231.412 55.0658C231.412 54.4587 231 54.0657 230.443 54.0657C229.886 54.0657 229.471 54.4587 229.471 55.0658C229.471 55.6729 229.889 56.0718 230.443 56.0718C230.997 56.0718 231.412 55.6729 231.412 55.0658Z" fill="black"/>
<path d="M232.931 56.1891L233.147 55.7815C233.393 55.9545 233.784 56.0777 234.158 56.0777C234.641 56.0777 234.842 55.931 234.842 55.6905C234.842 55.0512 233.023 55.6055 233.023 54.4704C233.023 53.9601 233.485 53.614 234.223 53.614C234.599 53.614 235.023 53.7108 235.272 53.8721L235.049 54.2798C234.789 54.1126 234.501 54.054 234.217 54.054C233.761 54.054 233.539 54.2211 233.539 54.447C233.539 55.1186 235.363 54.5701 235.363 55.6788C235.363 56.195 234.886 56.5235 234.119 56.5235C233.642 56.5235 233.168 56.3768 232.928 56.1891H232.931Z" fill="black"/>
<path d="M238.477 56.0601L238.679 55.6407C238.96 55.893 239.446 56.0777 239.935 56.0777C240.592 56.0777 240.874 55.8255 240.874 55.497C240.874 54.5761 238.569 55.1568 238.569 53.7607C238.569 53.18 239.025 52.6843 240.026 52.6843C240.471 52.6843 240.933 52.8016 241.25 53.0187L241.069 53.4498C240.737 53.2416 240.364 53.1448 240.026 53.1448C239.381 53.1448 239.102 53.4146 239.102 53.7431C239.102 54.6641 241.407 54.0863 241.407 55.4706C241.407 56.0455 240.939 56.5411 239.935 56.5411C239.354 56.5411 238.782 56.3476 238.477 56.0689V56.0601Z" fill="black"/>
<path d="M245.442 53.6406V56.4914H244.947V56.0603C244.734 56.3565 244.376 56.5237 243.97 56.5237C243.226 56.5237 242.731 56.119 242.731 55.2801V53.6406H243.253V55.2215C243.253 55.7817 243.534 56.0603 244.029 56.0603C244.571 56.0603 244.921 55.7259 244.921 55.113V53.6377H245.442V53.6406Z" fill="black"/>
<path d="M246.707 56.1891L246.923 55.7815C247.169 55.9545 247.56 56.0777 247.934 56.0777C248.416 56.0777 248.618 55.931 248.618 55.6905C248.618 55.0512 246.799 55.6055 246.799 54.4704C246.799 53.9601 247.261 53.614 247.999 53.614C248.375 53.614 248.799 53.7108 249.047 53.8721L248.825 54.2798C248.565 54.1126 248.277 54.054 247.993 54.054C247.537 54.054 247.314 54.2211 247.314 54.447C247.314 55.1186 249.139 54.5701 249.139 55.6788C249.139 56.195 248.662 56.5235 247.895 56.5235C247.418 56.5235 246.944 56.3768 246.704 56.1891H246.707Z" fill="black"/>
<path d="M252.048 56.3242C251.891 56.4591 251.651 56.5237 251.417 56.5237C250.837 56.5237 250.505 56.2069 250.505 55.632V54.0659H250.016V53.6406H250.505V53.0159H251.026V53.6406H251.853V54.0659H251.026V55.6086C251.026 55.9165 251.189 56.0867 251.477 56.0867C251.628 56.0867 251.776 56.0368 251.885 55.9517L252.048 56.3242Z" fill="black"/>
<path d="M255.808 55.2359H253.471C253.536 55.7375 253.945 56.0689 254.513 56.0689C254.851 56.0689 255.133 55.9545 255.346 55.7257L255.633 56.0601C255.373 56.3622 254.976 56.5235 254.499 56.5235C253.568 56.5235 252.949 55.9164 252.949 55.0658C252.949 54.2153 253.562 53.614 254.395 53.614C255.227 53.614 255.82 54.2065 255.82 55.0834C255.82 55.1274 255.814 55.1919 255.808 55.2389V55.2359ZM253.471 54.8634H255.319C255.266 54.3854 254.902 54.0452 254.395 54.0452C253.888 54.0452 253.527 54.3795 253.471 54.8634Z" fill="black"/>
<path d="M259.908 54.8488V56.4883H259.387V54.9074C259.387 54.3472 259.105 54.0745 258.611 54.0745C258.057 54.0745 257.698 54.403 257.698 55.0218V56.4912H257.177V53.6404H257.677V54.0716C257.891 53.7812 258.258 53.614 258.714 53.614C259.416 53.614 259.911 54.0129 259.911 54.8517L259.908 54.8488Z" fill="black"/>
<path d="M263.131 56.3242C262.974 56.4591 262.734 56.5237 262.5 56.5237C261.92 56.5237 261.588 56.2069 261.588 55.632V54.0659H261.099V53.6406H261.588V53.0159H262.109V53.6406H262.936V54.0659H262.109V55.6086C262.109 55.9165 262.272 56.0867 262.56 56.0867C262.711 56.0867 262.859 56.0368 262.968 55.9517L263.131 56.3242Z" fill="black"/>
<path d="M266.678 54.7698V56.4914H266.183V56.116C266.008 56.3741 265.688 56.5237 265.238 56.5237C264.586 56.5237 264.174 56.1806 264.174 55.6849C264.174 55.2274 264.474 54.8519 265.333 54.8519H266.159V54.7493C266.159 54.3123 265.904 54.06 265.389 54.06C265.045 54.06 264.699 54.1774 264.476 54.3651L264.26 53.9779C264.559 53.7404 264.989 53.6113 265.451 53.6113C266.239 53.6113 266.684 53.9867 266.684 54.7669L266.678 54.7698ZM266.156 55.6204V55.2215H265.353C264.838 55.2215 264.69 55.4209 264.69 55.6614C264.69 55.9459 264.93 56.1248 265.327 56.1248C265.724 56.1248 266.029 55.9459 266.159 55.6204H266.156ZM265.564 53.2271H265.075L265.813 52.5291H266.476L265.564 53.2271Z" fill="black"/>
<path d="M270.775 53.6406L269.515 56.4914H268.982L267.723 53.6406H268.265L269.255 55.9254L270.265 53.6406H270.775Z" fill="black"/>
<path d="M274.41 55.2359H272.072C272.137 55.7375 272.546 56.0689 273.115 56.0689C273.453 56.0689 273.734 55.9545 273.947 55.7257L274.235 56.0601C273.974 56.3622 273.577 56.5235 273.1 56.5235C272.17 56.5235 271.551 55.9164 271.551 55.0658C271.551 54.2153 272.164 53.614 272.996 53.614C273.829 53.614 274.421 54.2065 274.421 55.0834C274.421 55.1274 274.416 55.1919 274.41 55.2389V55.2359ZM272.072 54.8634H273.921C273.867 54.3854 273.503 54.0452 272.996 54.0452C272.49 54.0452 272.128 54.3795 272.072 54.8634Z" fill="black"/>
<path d="M275.684 52.7577C275.684 52.57 275.835 52.4175 276.036 52.4175C276.238 52.4175 276.389 52.5641 276.389 52.746C276.389 52.9395 276.241 53.0891 276.036 53.0891C275.832 53.0891 275.684 52.9425 275.684 52.7548V52.7577ZM275.775 53.6405H276.297V56.4913H275.775V53.6405Z" fill="black"/>
<path d="M277.564 56.1891L277.781 55.7815C278.027 55.9545 278.418 56.0777 278.791 56.0777C279.274 56.0777 279.475 55.931 279.475 55.6905C279.475 55.0512 277.656 55.6055 277.656 54.4704C277.656 53.9601 278.118 53.614 278.856 53.614C279.232 53.614 279.656 53.7108 279.905 53.8721L279.683 54.2798C279.422 54.1126 279.135 54.054 278.85 54.054C278.394 54.054 278.172 54.2211 278.172 54.447C278.172 55.1186 279.997 54.5701 279.997 55.6788C279.997 56.195 279.517 56.5235 278.752 56.5235C278.275 56.5235 277.801 56.3768 277.562 56.1891H277.564Z" fill="black"/>
<path d="M14.2586 30.9219C18.7053 17.9906 31.0917 8.66389 45.6377 8.66389C60.1836 8.66389 73.2454 18.5098 77.3633 31.9925L86.1176 30.8046C81.3538 13.0897 65.0126 0 45.6377 0C26.2627 0 8.94086 13.8904 4.76074 32.4177L14.2616 30.9219H14.2586Z" fill="#B08046"/>
<path d="M43.2499 43.1757C44.9326 42.8824 46.6301 43.5921 47.5929 44.9882L51.302 50.376C52.4041 51.9745 54.3208 52.825 56.2583 52.5699L91.2665 46.8272L88.692 38.1809L51.8234 43.6977C50.437 43.906 49.0564 43.2783 48.3128 42.0993L44.8911 36.6792C43.7802 34.8344 41.6353 33.8607 39.4964 34.2331L0 40.5888L2.58628 49.5841L43.2499 43.1727V43.1757Z" fill="black"/>
<path d="M89.5335 52.5551L52.6057 58.0808C51.2192 58.289 49.8387 57.6614 49.0951 56.4823L45.6734 51.0623C44.5624 49.2175 42.4175 48.2437 40.2786 48.6162L1.28882 54.8898L3.8751 63.888L44.0321 57.5587C45.7148 57.2654 47.4123 57.9752 48.3752 59.3713L52.0843 64.7591C53.1863 66.3575 55.1031 67.2081 57.0406 66.9529L92.108 61.1985L89.5335 52.5522V52.5551Z" fill="black"/>
</g>
<defs>
<clipPath id="clip0_149_1346">
<rect width="280" height="67" fill="white"/>
</clipPath>
</defs>
</svg>
