<svg width="280" height="67" viewBox="0 0 280 67" fill="none" xmlns="http://www.w3.org/2000/svg">
<g clip-path="url(#clip0_144_422)">
<path d="M126.991 39.6505H132.626V52.3032C129.282 54.978 124.61 56.3389 120.074 56.3389C110.135 56.3389 102.802 49.4905 102.802 40.0112C102.802 30.532 110.132 23.6836 120.166 23.6836C125.525 23.6836 130.016 25.4522 133.038 28.8544L129.282 32.4824C126.763 29.9894 123.875 28.8544 120.441 28.8544C113.616 28.8544 108.805 33.4356 108.805 40.0112C108.805 46.5869 113.616 51.1681 120.394 51.1681C122.684 51.1681 124.93 50.7135 126.991 49.5345V39.6476V39.6505Z" fill="white"/>
<path d="M165.38 50.8954V55.8843H138.03V51.9395L156.904 29.1271H138.35V24.1382H164.781V28.083L145.907 50.8954H165.377H165.38Z" fill="white"/>
<path d="M181.819 28.9453H183.881V32.8637C182.809 33.6644 181.33 34.0926 179.938 34.0926C176.872 34.0926 174.614 32.0102 174.614 29.0978C174.614 26.1854 176.872 24.103 179.979 24.103C181.695 24.103 183.114 24.6837 184.062 25.7719L182.613 27.0976C181.902 26.3526 181.078 26.0065 180.089 26.0065C178.193 26.0065 176.898 27.2618 176.898 29.0978C176.898 30.9338 178.196 32.1891 180.062 32.1891C180.676 32.1891 181.247 32.0777 181.819 31.7756V28.9482V28.9453Z" fill="white"/>
<path d="M195.77 33.9253L193.888 31.2357H191.812V33.9253H189.554V24.2671H193.776C196.383 24.2671 198.012 25.6045 198.012 27.772C198.012 29.2208 197.275 30.2825 196.007 30.8222L198.196 33.9253H195.77ZM193.651 26.0884H191.812V29.4555H193.651C195.032 29.4555 195.728 28.8219 195.728 27.772C195.728 26.722 195.032 26.0884 193.651 26.0884Z" fill="white"/>
<path d="M209.803 31.8546H205.273L204.408 33.9253H202.094L206.443 24.2671H208.674L213.035 33.9253H210.665L209.8 31.8546H209.803ZM209.092 30.1564L207.546 26.458L205.999 30.1564H209.092Z" fill="white"/>
<path d="M216.869 32.9722L217.636 31.2887C218.46 31.8812 219.686 32.2947 220.856 32.2947C222.195 32.2947 222.737 31.8548 222.737 31.2594C222.737 29.4527 217.064 30.6933 217.064 27.1064C217.064 25.4639 218.403 24.1001 221.176 24.1001C222.403 24.1001 223.656 24.3905 224.562 24.9565L223.866 26.6547C222.96 26.1444 222.026 25.8951 221.161 25.8951C219.822 25.8951 219.307 26.3907 219.307 26.9978C219.307 28.7781 224.98 27.5492 224.98 31.0952C224.98 32.7083 223.629 34.0897 220.841 34.0897C219.295 34.0897 217.734 33.6351 216.869 32.9722Z" fill="white"/>
<path d="M229.341 32.9722L230.108 31.2887C230.932 31.8812 232.158 32.2947 233.328 32.2947C234.667 32.2947 235.21 31.8548 235.21 31.2594C235.21 29.4527 229.536 30.6933 229.536 27.1064C229.536 25.4639 230.875 24.1001 233.648 24.1001C234.875 24.1001 236.128 24.3905 237.034 24.9565L236.338 26.6547C235.432 26.1444 234.499 25.8951 233.634 25.8951C232.294 25.8951 231.779 26.3907 231.779 26.9978C231.779 28.7781 237.452 27.5492 237.452 31.0952C237.452 32.7083 236.101 34.0897 233.314 34.0897C231.767 34.0897 230.206 33.6351 229.341 32.9722Z" fill="white"/>
<path d="M242.58 24.2671H244.838V33.9253H242.58V24.2671Z" fill="white"/>
<path d="M183.128 46.6073V48.4287H174.599V46.9798L179.95 40.5919H174.709V38.7705H182.918V40.2194L177.58 46.6073H183.126H183.128Z" fill="white"/>
<path d="M194.584 46.358H190.055L189.19 48.4287H186.876L191.225 38.7705H193.456L197.817 48.4287H195.447L194.582 46.358H194.584ZM193.873 44.6598L192.327 40.9614L190.781 44.6598H193.873Z" fill="white"/>
<path d="M210.875 42.2754C210.875 44.4281 209.246 45.7656 206.639 45.7656H204.675V48.4287H202.417V38.7705H206.639C209.246 38.7705 210.875 40.1079 210.875 42.2754ZM208.591 42.2754C208.591 41.2136 207.895 40.5919 206.515 40.5919H204.675V43.9442H206.515C207.895 43.9442 208.591 43.3224 208.591 42.2754Z" fill="white"/>
<path d="M224.518 42.2754C224.518 44.4281 222.888 45.7656 220.281 45.7656H218.317V48.4287H216.06V38.7705H220.281C222.888 38.7705 224.518 40.1079 224.518 42.2754ZM222.234 42.2754C222.234 41.2136 221.538 40.5919 220.157 40.5919H218.317V43.9442H220.157C221.538 43.9442 222.234 43.3224 222.234 42.2754Z" fill="white"/>
<path d="M237.257 46.6337V48.4287H229.702V38.7705H237.073V40.5655H231.945V42.6625H236.475V44.4017H231.945V46.6366H237.254L237.257 46.6337Z" fill="white"/>
<path d="M242.637 38.7705H244.894V46.6073H249.785V48.4287H242.637V38.7705Z" fill="white"/>
<path d="M254.635 38.7705H256.892V48.4287H254.635V38.7705Z" fill="white"/>
<path d="M271.735 38.7705V48.4287H269.88L265.016 42.5657V48.4287H262.785V38.7705H264.651L269.501 44.6334V38.7705H271.732H271.735Z" fill="white"/>
<path d="M277.63 38.7705H279.888V48.4287H277.63V38.7705Z" fill="white"/>
<path d="M178.012 56.0222V56.4915H175.251V52.7256H177.935V53.1949H175.793V54.3504H177.701V54.808H175.793V56.0222H178.009H178.012Z" fill="white"/>
<path d="M184.233 54.849V56.4885H183.712V54.9077C183.712 54.3475 183.439 54.0747 182.968 54.0747C182.447 54.0747 182.103 54.4032 182.103 55.0221V56.4915H181.582V54.9106C181.582 54.3504 181.309 54.0777 180.838 54.0777C180.317 54.0777 179.973 54.4061 179.973 55.025V56.4944H179.452V53.6436H179.953V54.0689C180.16 53.7785 180.512 53.6172 180.948 53.6172C181.383 53.6172 181.757 53.7902 181.949 54.1451C182.166 53.8225 182.568 53.6172 183.057 53.6172C183.759 53.6172 184.236 54.0161 184.236 54.8549L184.233 54.849Z" fill="white"/>
<path d="M188.813 55.0661C188.813 55.943 188.2 56.5237 187.356 56.5237C186.947 56.5237 186.588 56.3683 186.351 56.0603V57.5356H185.83V53.6407H186.331V54.0923C186.565 53.7756 186.935 53.6143 187.359 53.6143C188.2 53.6143 188.816 54.195 188.816 55.0661H188.813ZM188.286 55.0661C188.286 54.4648 187.868 54.0659 187.314 54.0659C186.76 54.0659 186.349 54.4648 186.349 55.0661C186.349 55.6673 186.766 56.0721 187.314 56.0721C187.862 56.0721 188.286 55.6732 188.286 55.0661Z" fill="white"/>
<path d="M191.72 53.6113V54.1129C191.675 54.107 191.64 54.107 191.601 54.107C191.041 54.107 190.695 54.4472 190.695 55.069V56.4885H190.173V53.6377H190.674V54.1158C190.857 53.7814 191.216 53.6113 191.722 53.6113H191.72Z" fill="white"/>
<path d="M195.559 55.2362H193.222C193.287 55.7377 193.696 56.0691 194.264 56.0691C194.602 56.0691 194.884 55.9547 195.097 55.726L195.384 56.0603C195.124 56.3624 194.727 56.5237 194.25 56.5237C193.319 56.5237 192.7 55.9166 192.7 55.0661C192.7 54.2155 193.313 53.6143 194.146 53.6143C194.978 53.6143 195.571 54.2067 195.571 55.0837C195.571 55.1277 195.565 55.1922 195.559 55.2391V55.2362ZM193.222 54.8637H195.07C195.017 54.3856 194.653 54.0454 194.146 54.0454C193.639 54.0454 193.278 54.3798 193.222 54.8637Z" fill="white"/>
<path d="M199.52 55.2362H197.183C197.248 55.7377 197.657 56.0691 198.225 56.0691C198.563 56.0691 198.845 55.9547 199.058 55.726L199.345 56.0603C199.084 56.3624 198.687 56.5237 198.211 56.5237C197.28 56.5237 196.661 55.9166 196.661 55.0661C196.661 54.2155 197.274 53.6143 198.107 53.6143C198.939 53.6143 199.532 54.2067 199.532 55.0837C199.532 55.1277 199.526 55.1922 199.52 55.2391V55.2362ZM197.183 54.8637H199.031C198.978 54.3856 198.613 54.0454 198.107 54.0454C197.6 54.0454 197.239 54.3798 197.183 54.8637Z" fill="white"/>
<path d="M203.623 54.849V56.4885H203.102V54.9077C203.102 54.3475 202.82 54.0747 202.325 54.0747C201.771 54.0747 201.413 54.4032 201.413 55.0221V56.4915H200.892V53.6407H201.392V54.0718C201.606 53.7814 201.973 53.6143 202.429 53.6143C203.131 53.6143 203.626 54.0131 203.626 54.852L203.623 54.849Z" fill="white"/>
<path d="M207.957 52.4995V56.4912H207.456V56.0396C207.222 56.3622 206.852 56.5235 206.428 56.5235C205.587 56.5235 204.974 55.9369 204.974 55.0658C204.974 54.1947 205.587 53.614 206.428 53.614C206.837 53.614 207.196 53.7636 207.433 54.0716V52.4995H207.954H207.957ZM207.442 55.0658C207.442 54.4587 207.024 54.0657 206.476 54.0657C205.928 54.0657 205.504 54.4587 205.504 55.0658C205.504 55.6729 205.922 56.0718 206.476 56.0718C207.03 56.0718 207.442 55.6729 207.442 55.0658Z" fill="white"/>
<path d="M209.489 52.7577C209.489 52.57 209.64 52.4175 209.841 52.4175C210.043 52.4175 210.194 52.5641 210.194 52.746C210.194 52.9395 210.046 53.0891 209.841 53.0891C209.637 53.0891 209.489 52.9425 209.489 52.7548V52.7577ZM209.581 53.6405H210.102V56.4913H209.581V53.6405Z" fill="white"/>
<path d="M216.513 54.849V56.4885H215.992V54.9077C215.992 54.3475 215.719 54.0747 215.248 54.0747C214.727 54.0747 214.383 54.4032 214.383 55.0221V56.4915H213.862V54.9106C213.862 54.3504 213.589 54.0777 213.118 54.0777C212.597 54.0777 212.253 54.4061 212.253 55.025V56.4944H211.731V53.6436H212.232V54.0689C212.439 53.7785 212.792 53.6172 213.228 53.6172C213.663 53.6172 214.036 53.7902 214.229 54.1451C214.445 53.8225 214.848 53.6172 215.337 53.6172C216.039 53.6172 216.516 54.0161 216.516 54.8549L216.513 54.849Z" fill="white"/>
<path d="M220.717 55.2362H218.379C218.444 55.7377 218.853 56.0691 219.422 56.0691C219.76 56.0691 220.041 55.9547 220.255 55.726L220.542 56.0603C220.281 56.3624 219.884 56.5237 219.407 56.5237C218.477 56.5237 217.858 55.9166 217.858 55.0661C217.858 54.2155 218.471 53.6143 219.304 53.6143C220.136 53.6143 220.726 54.2067 220.726 55.0837C220.726 55.1277 220.72 55.1922 220.714 55.2391L220.717 55.2362ZM218.379 54.8637H220.228C220.175 54.3856 219.81 54.0454 219.304 54.0454C218.797 54.0454 218.433 54.3798 218.379 54.8637Z" fill="white"/>
<path d="M224.82 54.849V56.4885H224.298V54.9077C224.298 54.3475 224.017 54.0747 223.522 54.0747C222.968 54.0747 222.61 54.4032 222.61 55.0221V56.4915H222.088V53.6407H222.589V54.0718C222.802 53.7814 223.17 53.6143 223.626 53.6143C224.328 53.6143 224.823 54.0131 224.823 54.852L224.82 54.849Z" fill="white"/>
<path d="M228.04 56.324C227.883 56.4589 227.643 56.5234 227.409 56.5234C226.828 56.5234 226.497 56.2067 226.497 55.6318V54.0656H226.008V53.6403H226.497V53.0156H227.018V53.6403H227.845V54.0656H227.018V55.6083C227.018 55.9163 227.181 56.0864 227.468 56.0864C227.619 56.0864 227.768 56.0366 227.877 55.9515L228.04 56.324Z" fill="white"/>
<path d="M228.944 55.0661C228.944 54.2155 229.581 53.6143 230.443 53.6143C231.305 53.6143 231.936 54.2155 231.936 55.0661C231.936 55.9166 231.305 56.5237 230.443 56.5237C229.581 56.5237 228.944 55.9166 228.944 55.0661ZM231.412 55.0661C231.412 54.4589 231 54.0659 230.443 54.0659C229.886 54.0659 229.471 54.4589 229.471 55.0661C229.471 55.6732 229.889 56.0721 230.443 56.0721C230.997 56.0721 231.412 55.6732 231.412 55.0661Z" fill="white"/>
<path d="M232.931 56.1894L233.148 55.7817C233.394 55.9547 233.785 56.0779 234.158 56.0779C234.641 56.0779 234.842 55.9313 234.842 55.6908C234.842 55.0514 233.023 55.6057 233.023 54.4707C233.023 53.9603 233.485 53.6143 234.223 53.6143C234.599 53.6143 235.023 53.711 235.272 53.8724L235.05 54.28C234.789 54.1129 234.502 54.0542 234.217 54.0542C233.761 54.0542 233.539 54.2214 233.539 54.4472C233.539 55.1189 235.364 54.5704 235.364 55.679C235.364 56.1952 234.887 56.5237 234.119 56.5237C233.642 56.5237 233.168 56.3771 232.928 56.1894H232.931Z" fill="white"/>
<path d="M238.477 56.0604L238.679 55.641C238.96 55.8932 239.446 56.078 239.935 56.078C240.592 56.078 240.874 55.8257 240.874 55.4973C240.874 54.5763 238.569 55.157 238.569 53.761C238.569 53.1802 239.025 52.6846 240.026 52.6846C240.471 52.6846 240.933 52.8019 241.25 53.0189L241.069 53.4501C240.737 53.2418 240.364 53.145 240.026 53.145C239.381 53.145 239.102 53.4149 239.102 53.7434C239.102 54.6643 241.407 54.0865 241.407 55.4709C241.407 56.0457 240.939 56.5414 239.935 56.5414C239.354 56.5414 238.782 56.3478 238.477 56.0692V56.0604Z" fill="white"/>
<path d="M245.442 53.6406V56.4914H244.947V56.0603C244.734 56.3565 244.376 56.5237 243.97 56.5237C243.226 56.5237 242.731 56.119 242.731 55.2801V53.6406H243.253V55.2215C243.253 55.7817 243.534 56.0603 244.029 56.0603C244.571 56.0603 244.921 55.7259 244.921 55.113V53.6377H245.442V53.6406Z" fill="white"/>
<path d="M246.707 56.1894L246.923 55.7817C247.169 55.9547 247.56 56.0779 247.934 56.0779C248.416 56.0779 248.618 55.9313 248.618 55.6908C248.618 55.0514 246.799 55.6057 246.799 54.4707C246.799 53.9603 247.261 53.6143 247.999 53.6143C248.375 53.6143 248.799 53.711 249.047 53.8724L248.825 54.28C248.565 54.1129 248.277 54.0542 247.993 54.0542C247.537 54.0542 247.314 54.2214 247.314 54.4472C247.314 55.1189 249.139 54.5704 249.139 55.679C249.139 56.1952 248.662 56.5237 247.895 56.5237C247.418 56.5237 246.944 56.3771 246.704 56.1894H246.707Z" fill="white"/>
<path d="M252.048 56.324C251.891 56.4589 251.651 56.5234 251.417 56.5234C250.837 56.5234 250.505 56.2067 250.505 55.6318V54.0656H250.016V53.6403H250.505V53.0156H251.026V53.6403H251.853V54.0656H251.026V55.6083C251.026 55.9163 251.189 56.0864 251.477 56.0864C251.628 56.0864 251.776 56.0366 251.885 55.9515L252.048 56.324Z" fill="white"/>
<path d="M255.808 55.2362H253.471C253.536 55.7377 253.945 56.0691 254.513 56.0691C254.851 56.0691 255.133 55.9547 255.346 55.726L255.633 56.0603C255.373 56.3624 254.976 56.5237 254.499 56.5237C253.568 56.5237 252.949 55.9166 252.949 55.0661C252.949 54.2155 253.562 53.6143 254.395 53.6143C255.227 53.6143 255.82 54.2067 255.82 55.0837C255.82 55.1277 255.814 55.1922 255.808 55.2391V55.2362ZM253.471 54.8637H255.319C255.266 54.3856 254.902 54.0454 254.395 54.0454C253.888 54.0454 253.527 54.3798 253.471 54.8637Z" fill="white"/>
<path d="M259.908 54.849V56.4885H259.387V54.9077C259.387 54.3475 259.105 54.0747 258.61 54.0747C258.056 54.0747 257.698 54.4032 257.698 55.0221V56.4915H257.177V53.6407H257.677V54.0718C257.89 53.7814 258.258 53.6143 258.714 53.6143C259.416 53.6143 259.911 54.0131 259.911 54.852L259.908 54.849Z" fill="white"/>
<path d="M263.131 56.324C262.974 56.4589 262.734 56.5234 262.5 56.5234C261.92 56.5234 261.588 56.2067 261.588 55.6318V54.0656H261.099V53.6403H261.588V53.0156H262.109V53.6403H262.936V54.0656H262.109V55.6083C262.109 55.9163 262.272 56.0864 262.56 56.0864C262.711 56.0864 262.859 56.0366 262.968 55.9515L263.131 56.324Z" fill="white"/>
<path d="M266.677 54.7696V56.4912H266.183V56.1158C266.008 56.3739 265.688 56.5235 265.238 56.5235C264.586 56.5235 264.174 56.1803 264.174 55.6846C264.174 55.2271 264.473 54.8517 265.332 54.8517H266.159V54.749C266.159 54.312 265.904 54.0598 265.389 54.0598C265.045 54.0598 264.698 54.1771 264.476 54.3648L264.26 53.9777C264.559 53.7401 264.989 53.6111 265.451 53.6111C266.239 53.6111 266.683 53.9865 266.683 54.7666L266.677 54.7696ZM266.156 55.6201V55.2212H265.353C264.838 55.2212 264.69 55.4207 264.69 55.6612C264.69 55.9457 264.93 56.1246 265.326 56.1246C265.723 56.1246 266.029 55.9457 266.159 55.6201H266.156ZM265.563 53.2268H265.075L265.812 52.5288H266.476L265.563 53.2268Z" fill="white"/>
<path d="M270.775 53.6406L269.515 56.4914H268.982L267.723 53.6406H268.265L269.255 55.9254L270.265 53.6406H270.775Z" fill="white"/>
<path d="M274.41 55.2362H272.072C272.137 55.7377 272.546 56.0691 273.115 56.0691C273.453 56.0691 273.734 55.9547 273.947 55.726L274.235 56.0603C273.974 56.3624 273.577 56.5237 273.1 56.5237C272.17 56.5237 271.551 55.9166 271.551 55.0661C271.551 54.2155 272.164 53.6143 272.996 53.6143C273.829 53.6143 274.421 54.2067 274.421 55.0837C274.421 55.1277 274.416 55.1922 274.41 55.2391V55.2362ZM272.072 54.8637H273.921C273.867 54.3856 273.503 54.0454 272.996 54.0454C272.49 54.0454 272.128 54.3798 272.072 54.8637Z" fill="white"/>
<path d="M275.684 52.7577C275.684 52.57 275.835 52.4175 276.036 52.4175C276.238 52.4175 276.389 52.5641 276.389 52.746C276.389 52.9395 276.241 53.0891 276.036 53.0891C275.832 53.0891 275.684 52.9425 275.684 52.7548V52.7577ZM275.775 53.6405H276.297V56.4913H275.775V53.6405Z" fill="white"/>
<path d="M277.565 56.1894L277.781 55.7817C278.027 55.9547 278.418 56.0779 278.791 56.0779C279.274 56.0779 279.476 55.9313 279.476 55.6908C279.476 55.0514 277.657 55.6057 277.657 54.4707C277.657 53.9603 278.119 53.6143 278.856 53.6143C279.233 53.6143 279.656 53.711 279.905 53.8724L279.683 54.28C279.422 54.1129 279.135 54.0542 278.85 54.0542C278.394 54.0542 278.172 54.2214 278.172 54.4472C278.172 55.1189 279.997 54.5704 279.997 55.679C279.997 56.1952 279.517 56.5237 278.753 56.5237C278.276 56.5237 277.802 56.3771 277.562 56.1894H277.565Z" fill="white"/>
<path d="M14.2586 30.9219C18.7053 17.9906 31.0917 8.66389 45.6377 8.66389C60.1836 8.66389 73.2454 18.5098 77.3633 31.9925L86.1176 30.8046C81.3538 13.0897 65.0126 0 45.6377 0C26.2627 0 8.94086 13.8904 4.76074 32.4177L14.2616 30.9219H14.2586Z" fill="#B08046"/>
<path d="M43.2499 43.1759C44.9326 42.8826 46.6301 43.5924 47.5929 44.9885L51.302 50.3763C52.4041 51.9747 54.3208 52.8253 56.2583 52.5701L91.2665 46.8274L88.692 38.1811L51.8234 43.698C50.437 43.9062 49.0564 43.2786 48.3128 42.0995L44.8911 36.6795C43.7802 34.8346 41.6353 33.8609 39.4964 34.2334L0 40.5891L2.58628 49.5844L43.2499 43.173V43.1759Z" fill="white"/>
<path d="M89.5334 52.5556L52.6055 58.0813C51.2191 58.2895 49.8385 57.6619 49.0949 56.4828L45.6732 51.0628C44.5623 49.2179 42.4174 48.2442 40.2785 48.6167L1.2887 54.8902L3.87498 63.8885L44.032 57.5592C45.7147 57.2659 47.4122 57.9757 48.375 59.3718L52.0841 64.7596C53.1862 66.358 55.1029 67.2086 57.0404 66.9534L92.1078 61.199L89.5334 52.5527V52.5556Z" fill="white"/>
</g>
<defs>
<clipPath id="clip0_144_422">
<rect width="280" height="67" fill="white"/>
</clipPath>
</defs>
</svg>
