<svg width="16" height="20" viewBox="0 0 16 20" fill="none" xmlns="http://www.w3.org/2000/svg">
<path d="M4.51952 6.15385H2.96107V4.61539H4.51952V6.15385Z" fill="#B08046"/>
<path d="M8.41562 6.15385H6.85718V4.61539H8.41562V6.15385Z" fill="#B08046"/>
<path d="M12.3117 6.15385H10.7533V4.61539H12.3117V6.15385Z" fill="#B08046"/>
<path d="M4.51952 10.7692H2.96107V9.23077H4.51952V10.7692Z" fill="#B08046"/>
<path d="M8.41562 10.7692H6.85718V9.23077H8.41562V10.7692Z" fill="#B08046"/>
<path d="M12.3117 10.7692H10.7533V9.23077H12.3117V10.7692Z" fill="#B08046"/>
<path d="M12.3117 15.3846H10.7533V13.8462H12.3117V15.3846Z" fill="#B08046"/>
<path fill-rule="evenodd" clip-rule="evenodd" d="M0 20H15.2725L15.2726 0H0V20ZM1.52711 1.53846V18.4615H2.90896V13.8182H8.36351V18.4615H13.7453V1.53846H1.52711ZM4.4674 15.3636H6.80507V18.4545H4.4674V15.3636Z" fill="#B08046"/>
<path d="M3 6.03846H4.55844V4.5H3V6.03846Z" fill="#B08046"/>
<path d="M6.8961 6.03846H8.45455V4.5H6.8961V6.03846Z" fill="#B08046"/>
<path d="M10.7922 6.03846H12.3507V4.5H10.7922V6.03846Z" fill="#B08046"/>
<path d="M3 10.6538H4.55844V9.11538H3V10.6538Z" fill="#B08046"/>
<path d="M6.8961 10.6538H8.45455V9.11538H6.8961V10.6538Z" fill="#B08046"/>
<path d="M10.7922 10.6538H12.3507V9.11538H10.7922V10.6538Z" fill="#B08046"/>
<path d="M10.7922 15.2692H12.3507V13.7308H10.7922V15.2692Z" fill="#B08046"/>
</svg>
