<svg width="28" height="14" viewBox="0 0 28 14" fill="none" xmlns="http://www.w3.org/2000/svg">
<path d="M2.26841 7.52354C3.32996 4.37735 6.28778 2.108 9.76095 2.108C13.2341 2.108 16.3529 4.50337 17.3356 7.78401L19.4263 7.49507C18.2884 3.18468 14.3866 0 9.76095 0C5.13528 0 0.998832 3.37977 0 7.88735L2.26841 7.52301V7.52354Z" fill="#B08046"/>
<path d="M10.4188 6.47646C11.4804 9.62265 14.4382 11.892 17.9113 11.892C21.3845 11.892 24.5033 9.49663 25.4859 6.21599L27.5766 6.50493C26.4388 10.8153 22.537 14 17.9113 14C13.2857 14 9.14922 10.6202 8.15039 6.11265L10.4188 6.47699V6.47646Z" fill="#B08046"/>
</svg>
