<svg width="25" height="16" viewBox="0 0 25 16" fill="none" xmlns="http://www.w3.org/2000/svg">
<path d="M1 15V8.40384C1 8.05303 1.10606 7.66469 1.31818 7.23881C1.5303 6.81294 1.84848 6.50862 2.27273 6.32585V3.34475C2.27273 2.6839 2.49831 2.1279 2.94947 1.67674C3.40063 1.22558 3.95663 1 4.61747 1H10.6385C11.0562 1 11.4176 1.09789 11.7227 1.29368C12.0279 1.48949 12.2718 1.75139 12.4545 2.07937C12.6373 1.75139 12.88 1.48949 13.1827 1.29368C13.4854 1.09789 13.8456 1 14.2633 1H20.2843C20.9451 1 21.5023 1.22558 21.956 1.67674C22.4096 2.1279 22.6364 2.6839 22.6364 3.34475V6.32585C23.0606 6.50862 23.3788 6.81294 23.5909 7.23881C23.803 7.66469 23.9091 8.05303 23.9091 8.40384V15H22.9301V12.4545H1.97901V15H1ZM12.9441 6.15209H21.6574V3.34475C21.6574 2.95313 21.5223 2.62761 21.2523 2.36818C20.9822 2.10874 20.6596 1.97901 20.2843 1.97901H14.2168C13.8562 1.97901 13.5539 2.11526 13.31 2.38775C13.066 2.66024 12.9441 2.97924 12.9441 3.34475V6.15209ZM3.25174 6.15209H11.965V3.34475C11.965 2.97924 11.8431 2.66024 11.5991 2.38775C11.3552 2.11526 11.0529 1.97901 10.6923 1.97901H4.61747C4.24709 1.97901 3.92687 2.11404 3.65682 2.38409C3.38677 2.65412 3.25174 2.97434 3.25174 3.34475V6.15209ZM1.97901 11.4755H22.9301V8.40384C22.9301 8.05954 22.8081 7.76135 22.5642 7.50927C22.3202 7.25716 22.018 7.13111 21.6574 7.13111H3.25174C2.89113 7.13111 2.58886 7.25716 2.34492 7.50927C2.10098 7.76135 1.97901 8.05954 1.97901 8.40384V11.4755Z" fill="#B08046" stroke="#B08046" stroke-width="0.5"/>
</svg>
