<svg width="14" height="26" viewBox="0 0 14 26" fill="none" xmlns="http://www.w3.org/2000/svg">
<path d="M11.2487 13L0.961493 2.71283C0.764916 2.51626 0.667904 2.27992 0.670459 2.00383C0.673037 1.72777 0.772615 1.49144 0.969193 1.29487C1.16577 1.09829 1.40209 1 1.67816 1C1.95423 1 2.19055 1.09829 2.38713 1.29487L12.5692 11.4846C12.7846 11.7 12.9418 11.9402 13.041 12.2051C13.1401 12.4701 13.1897 12.735 13.1897 13C13.1897 13.265 13.1401 13.5299 13.041 13.7949C12.9418 14.0598 12.7846 14.3 12.5692 14.5154L2.37946 24.7051C2.18288 24.9017 1.94784 24.9987 1.67433 24.9962C1.40081 24.9936 1.16577 24.894 0.969193 24.6974C0.772615 24.5009 0.674326 24.2645 0.674326 23.9885C0.674326 23.7124 0.772615 23.4761 0.969193 23.2795L11.2487 13Z" fill="#B08046" stroke="#090923" stroke-width="0.3"/>
</svg>
