<svg width="17" height="32" viewBox="0 0 17 32" fill="none" xmlns="http://www.w3.org/2000/svg">
<path d="M2.77719 16L15.6361 3.14104C15.8819 2.89532 16.0031 2.5999 15.9999 2.25479C15.9967 1.90971 15.8722 1.61431 15.6265 1.36858C15.3808 1.12286 15.0854 1 14.7403 1C14.3952 1 14.0998 1.12286 13.8541 1.36858L1.12652 14.1058C0.857298 14.375 0.660715 14.6752 0.536771 15.0064C0.412854 15.3376 0.350896 15.6688 0.350896 16C0.350896 16.3312 0.412854 16.6624 0.536771 16.9936C0.660715 17.3248 0.857298 17.625 1.12652 17.8942L13.8637 30.6314C14.1094 30.8771 14.4032 30.9984 14.7451 30.9952C15.087 30.992 15.3808 30.8675 15.6265 30.6218C15.8722 30.3761 15.9951 30.0807 15.9951 29.7356C15.9951 29.3905 15.8722 29.0951 15.6265 28.8494L2.77719 16Z" fill="#CE9257" stroke="#090923" stroke-width="0.3"/>
</svg>
