<svg width="22" height="20" viewBox="0 0 22 20" fill="none" xmlns="http://www.w3.org/2000/svg">
<path d="M1.989 16.3742V18.5055C1.989 18.6456 1.94161 18.7631 1.84684 18.8578C1.75206 18.9526 1.63462 19 1.49452 19C1.35442 19 1.23695 18.9526 1.14217 18.8578C1.04739 18.7631 1 18.6456 1 18.5055V9.00605L3.55905 1.49448C3.60686 1.32636 3.7023 1.20191 3.84538 1.12115C3.98846 1.04038 4.1477 1 4.32309 1H18.3472C18.5099 1 18.6498 1.04327 18.7668 1.12979C18.8839 1.21634 18.9657 1.33791 19.0124 1.49448L21.5714 9.00605V18.5055C21.5714 18.6456 21.524 18.7631 21.4293 18.8578C21.3345 18.9526 21.217 19 21.0769 19H21.0695C20.9294 19 20.8119 18.9526 20.7172 18.8578C20.6224 18.7631 20.575 18.6456 20.575 18.5055V16.3742H1.989ZM2.38214 8.01701H20.1893L18.1 1.989H4.47143L2.38214 8.01701ZM5.19223 13.5555C5.57379 13.5555 5.89355 13.4219 6.1515 13.1547C6.40948 12.8875 6.53847 12.5683 6.53847 12.1972C6.53847 11.8082 6.40487 11.4841 6.13765 11.2247C5.87046 10.9654 5.55397 10.8357 5.18818 10.8357C4.80453 10.8357 4.48037 10.9666 4.2157 11.2283C3.95101 11.4901 3.81867 11.8144 3.81867 12.2013C3.81867 12.5882 3.95221 12.9106 4.2193 13.1685C4.48639 13.4265 4.8107 13.5555 5.19223 13.5555ZM17.4081 13.5555C17.7869 13.5555 18.107 13.4219 18.3682 13.1547C18.6295 12.8875 18.7602 12.5683 18.7602 12.1972C18.7602 11.8082 18.6283 11.4841 18.3646 11.2247C18.101 10.9654 17.7808 10.8357 17.404 10.8357C17.0274 10.8357 16.7059 10.9666 16.4397 11.2283C16.1735 11.4901 16.0404 11.8144 16.0404 12.2013C16.0404 12.5882 16.1781 12.9106 16.4535 13.1685C16.729 13.4265 17.0472 13.5555 17.4081 13.5555ZM1.989 15.3852H20.5824V9.00605H1.989V15.3852Z" fill="#B08046" stroke="#B08046" stroke-width="0.5"/>
</svg>
