<svg width="27" height="27" viewBox="0 0 27 27" fill="none" xmlns="http://www.w3.org/2000/svg">
<path d="M10.6293 18.6207L18.6207 13.5L10.6293 8.37931V18.6207ZM13.5068 27C11.6402 27 9.88503 26.6458 8.24128 25.9374C6.59752 25.229 5.16767 24.2676 3.95174 23.0532C2.73583 21.8388 1.77323 20.4108 1.06394 18.7691C0.354646 17.1274 0 15.3733 0 13.5068C0 11.6402 0.354194 9.88503 1.06258 8.24128C1.771 6.59752 2.73239 5.16768 3.94677 3.95178C5.16118 2.73584 6.58922 1.77323 8.23089 1.06394C9.87256 0.354648 11.6267 0 13.4932 0C15.3598 0 17.115 0.354194 18.7587 1.06258C20.4025 1.771 21.8323 2.73239 23.0482 3.94677C24.2642 5.16118 25.2268 6.58922 25.9361 8.23089C26.6454 9.87256 27 11.6267 27 13.4932C27 15.3598 26.6458 17.115 25.9374 18.7587C25.229 20.4025 24.2676 21.8323 23.0532 23.0483C21.8388 24.2642 20.4108 25.2268 18.7691 25.9361C17.1274 26.6454 15.3733 27 13.5068 27ZM13.5 25.9138C16.9655 25.9138 19.9009 24.7112 22.306 22.306C24.7112 19.9009 25.9138 16.9655 25.9138 13.5C25.9138 10.0345 24.7112 7.09914 22.306 4.69397C19.9009 2.28879 16.9655 1.08621 13.5 1.08621C10.0345 1.08621 7.09914 2.28879 4.69397 4.69397C2.28879 7.09914 1.08621 10.0345 1.08621 13.5C1.08621 16.9655 2.28879 19.9009 4.69397 22.306C7.09914 24.7112 10.0345 25.9138 13.5 25.9138Z" fill="white"/>
</svg>
